TIME_SHIFT_463 NOTE_ON_45 DURATION/10_38
 TIME_SHIFT_1 NOTE_ON_84 DURATION/10_38
 TIME_SHIFT_7 NOTE_ON_48 DURATION/10_0
 TIME_SHIFT_0 NOTE_ON_76 DURATION/10_22
 TIME_SHIFT_110 NOTE_ON_52 DURATION/10_39
 TIME_SHIFT_5 NOTE_ON_81 DURATION/10_38
 TIME_SHIFT_117 NOTE_ON_76 DURATION/10_15
 TIME_SHIFT_5 NOTE_ON_57 DURATION/10_39
 TIME_SHIFT_154 NOTE_ON_84 DURATION/10_40
 TIME_SHIFT_1 NOTE_ON_45 DURATION/10_40
 TIME_SHIFT_1 NOTE_ON_76 DURATION/10_24
 TIME_SHIFT_121 NOTE_ON_81 DURATION/10_28
 TIME_SHIFT_1 NOTE_ON_52 DURATION/10_40
 TIME_SHIFT_123 NOTE_ON_57 DURATION/10_40
 TIME_SHIFT_3 NOTE_ON_76 DURATION/10_16
 TIME_SHIFT_159 NOTE_ON_84 DURATION/10_40
 TIME_SHIFT_1 NOTE_ON_45 DURATION/10_40
 TIME_SHIFT_7 NOTE_ON_48 DURATION/10_1
 TIME_SHIFT_5 NOTE_ON_76 DURATION/10_22
 TIME_SHIFT_1 NOTE_ON_81 DURATION/10_10
 TIME_SHIFT_112 NOTE_ON_81 DURATION/10_40
 TIME_SHIFT_3 NOTE_ON_52 DURATION/10_39
 TIME_SHIFT_116 NOTE_ON_57 DURATION/10_40
 TIME_SHIFT_7 NOTE_ON_76 DURATION/10_39
 TIME_SHIFT_18 NOTE_ON_69 DURATION/10_1
 TIME_SHIFT_138 NOTE_ON_84 DURATION/10_178
 TIME_SHIFT_3 NOTE_ON_45 DURATION/10_202
 TIME_SHIFT_121 NOTE_ON_93 DURATION/10_0
 TIME_SHIFT_2 NOTE_ON_81 DURATION/10_27
 TIME_SHIFT_3 NOTE_ON_52 DURATION/10_114
 TIME_SHIFT_116 NOTE_ON_57 DURATION/10_205
 TIME_SHIFT_1 NOTE_ON_76 DURATION/10_97
 TIME_SHIFT_152 NOTE_ON_47 DURATION/10_41
 TIME_SHIFT_4 NOTE_ON_59 DURATION/10_24
 TIME_SHIFT_4 NOTE_ON_81 DURATION/10_12
 TIME_SHIFT_0 NOTE_ON_86 DURATION/10_40
 TIME_SHIFT_112 NOTE_ON_53 DURATION/10_41
 TIME_SHIFT_19 NOTE_ON_83 DURATION/10_39
 TIME_SHIFT_6 NOTE_ON_81 DURATION/10_26
 TIME_SHIFT_115 NOTE_ON_59 DURATION/10_40
 TIME_SHIFT_2 NOTE_ON_77 DURATION/10_40
 TIME_SHIFT_153 NOTE_ON_81 DURATION/10_24
 TIME_SHIFT_0 NOTE_ON_86 DURATION/10_41
 TIME_SHIFT_4 NOTE_ON_47 DURATION/10_40
 TIME_SHIFT_119 NOTE_ON_83 DURATION/10_41
 TIME_SHIFT_1 NOTE_ON_53 DURATION/10_41
 TIME_SHIFT_130 NOTE_ON_59 DURATION/10_42
 TIME_SHIFT_1 NOTE_ON_77 DURATION/10_16
 TIME_SHIFT_1 NOTE_ON_81 DURATION/10_15
 TIME_SHIFT_158 NOTE_ON_86 DURATION/10_40
 TIME_SHIFT_1 NOTE_ON_76 DURATION/10_40
 TIME_SHIFT_0 NOTE_ON_47 DURATION/10_41
 TIME_SHIFT_4 NOTE_ON_81 DURATION/10_54
 TIME_SHIFT_126 NOTE_ON_83 DURATION/10_40
 TIME_SHIFT_4 NOTE_ON_53 DURATION/10_39
 TIME_SHIFT_128 NOTE_ON_77 DURATION/10_40
 TIME_SHIFT_10 NOTE_ON_59 DURATION/10_35
 TIME_SHIFT_142 NOTE_ON_76 DURATION/10_66
 TIME_SHIFT_0 NOTE_ON_86 DURATION/10_203
 TIME_SHIFT_5 NOTE_ON_47 DURATION/10_191
 TIME_SHIFT_120 NOTE_ON_83 DURATION/10_203
 TIME_SHIFT_1 NOTE_ON_53 DURATION/10_203
 TIME_SHIFT_97 NOTE_ON_59 DURATION/10_206
 TIME_SHIFT_45 NOTE_ON_77 DURATION/10_141
 TIME_SHIFT_130 NOTE_ON_45 DURATION/10_41
 TIME_SHIFT_0 NOTE_ON_84 DURATION/10_41
 TIME_SHIFT_123 NOTE_ON_81 DURATION/10_40
 TIME_SHIFT_8 NOTE_ON_52 DURATION/10_39
 TIME_SHIFT_132 NOTE_ON_57 DURATION/10_41
 TIME_SHIFT_9 NOTE_ON_76 DURATION/10_40
 TIME_SHIFT_149 NOTE_ON_84 DURATION/10_40
 TIME_SHIFT_1 NOTE_ON_45 DURATION/10_41
 TIME_SHIFT_112 NOTE_ON_93 DURATION/10_0
 TIME_SHIFT_4 NOTE_ON_81 DURATION/10_40
 TIME_SHIFT_0 NOTE_ON_52 DURATION/10_41
 TIME_SHIFT_140 NOTE_ON_76 DURATION/10_39
 TIME_SHIFT_2 NOTE_ON_57 DURATION/10_40
 TIME_SHIFT_153 NOTE_ON_84 DURATION/10_40
 TIME_SHIFT_7 NOTE_ON_45 DURATION/10_40
 TIME_SHIFT_106 NOTE_ON_93 DURATION/10_0
 TIME_SHIFT_0 NOTE_ON_81 DURATION/10_41
 TIME_SHIFT_15 NOTE_ON_52 DURATION/10_40
 TIME_SHIFT_122 NOTE_ON_76 DURATION/10_39
 TIME_SHIFT_8 NOTE_ON_57 DURATION/10_39
 TIME_SHIFT_155 NOTE_ON_84 DURATION/10_84
 TIME_SHIFT_5 NOTE_ON_45 DURATION/10_86
 TIME_SHIFT_116 NOTE_ON_93 DURATION/10_0
 TIME_SHIFT_1 NOTE_ON_81 DURATION/10_27
 TIME_SHIFT_2 NOTE_ON_52 DURATION/10_82
 TIME_SHIFT_119 NOTE_ON_76 DURATION/10_55
 TIME_SHIFT_5 NOTE_ON_57 DURATION/10_104
 TIME_SHIFT_140 NOTE_ON_47 DURATION/10_42
 TIME_SHIFT_11 NOTE_ON_86 DURATION/10_40
 TIME_SHIFT_7 NOTE_ON_81 DURATION/10_39
 TIME_SHIFT_116 NOTE_ON_53 DURATION/10_40
 TIME_SHIFT_3 NOTE_ON_83 DURATION/10_40
 TIME_SHIFT_5 NOTE_ON_95 DURATION/10_1
 TIME_SHIFT_116 NOTE_ON_59 DURATION/10_41
 TIME_SHIFT_3 NOTE_ON_77 DURATION/10_16
 TIME_SHIFT_158 NOTE_ON_86 DURATION/10_40
 TIME_SHIFT_2 NOTE_ON_81 DURATION/10_13
 TIME_SHIFT_5 NOTE_ON_76 DURATION/10_10
 TIME_SHIFT_2 NOTE_ON_47 DURATION/10_40
 TIME_SHIFT_113 NOTE_ON_53 DURATION/10_41
 TIME_SHIFT_3 NOTE_ON_83 DURATION/10_40
 TIME_SHIFT_140 NOTE_ON_77 DURATION/10_27
 TIME_SHIFT_0 NOTE_ON_59 DURATION/10_40
 TIME_SHIFT_148 NOTE_ON_86 DURATION/10_41
 TIME_SHIFT_6 NOTE_ON_76 DURATION/10_15
 TIME_SHIFT_1 NOTE_ON_47 DURATION/10_24
 TIME_SHIFT_118 NOTE_ON_83 DURATION/10_41
 TIME_SHIFT_2 NOTE_ON_53 DURATION/10_41
 TIME_SHIFT_9 NOTE_ON_77 DURATION/10_12
 TIME_SHIFT_125 NOTE_ON_47 DURATION/10_15
 TIME_SHIFT_2 NOTE_ON_59 DURATION/10_14
 TIME_SHIFT_0 NOTE_ON_77 DURATION/10_41
 TIME_SHIFT_153 NOTE_ON_86 DURATION/10_174
 TIME_SHIFT_5 NOTE_ON_47 DURATION/10_24
 TIME_SHIFT_1 NOTE_ON_59 DURATION/10_24
 TIME_SHIFT_120 NOTE_ON_83 DURATION/10_163
 TIME_SHIFT_4 NOTE_ON_81 DURATION/10_0
 TIME_SHIFT_2 NOTE_ON_53 DURATION/10_74
 TIME_SHIFT_124 NOTE_ON_47 DURATION/10_62
 TIME_SHIFT_2 NOTE_ON_59 DURATION/10_142
 TIME_SHIFT_9 NOTE_ON_77 DURATION/10_103
 TIME_SHIFT_150 NOTE_ON_45 DURATION/10_42
 TIME_SHIFT_7 NOTE_ON_84 DURATION/10_41
 TIME_SHIFT_4 NOTE_ON_57 DURATION/10_24
 TIME_SHIFT_130 NOTE_ON_81 DURATION/10_41
 TIME_SHIFT_4 NOTE_ON_52 DURATION/10_40
 TIME_SHIFT_9 NOTE_ON_76 DURATION/10_8
 TIME_SHIFT_96 NOTE_ON_76 DURATION/10_18
 TIME_SHIFT_11 NOTE_ON_57 DURATION/10_42
 TIME_SHIFT_2 NOTE_ON_69 DURATION/10_49
 TIME_SHIFT_165 NOTE_ON_45 DURATION/10_42
 TIME_SHIFT_3 NOTE_ON_84 DURATION/10_42
 TIME_SHIFT_8 NOTE_ON_76 DURATION/10_25
 TIME_SHIFT_4 NOTE_ON_48 DURATION/10_43
 TIME_SHIFT_115 NOTE_ON_52 DURATION/10_29
 TIME_SHIFT_0 NOTE_ON_81 DURATION/10_41
 TIME_SHIFT_134 NOTE_ON_57 DURATION/10_40
 TIME_SHIFT_10 NOTE_ON_76 DURATION/10_43
 TIME_SHIFT_160 NOTE_ON_52 DURATION/10_10
 TIME_SHIFT_0 NOTE_ON_45 DURATION/10_41
 TIME_SHIFT_1 NOTE_ON_84 DURATION/10_41
 TIME_SHIFT_117 NOTE_ON_52 DURATION/10_29
 TIME_SHIFT_3 NOTE_ON_81 DURATION/10_33
 TIME_SHIFT_122 NOTE_ON_57 DURATION/10_42
 TIME_SHIFT_37 NOTE_ON_76 DURATION/10_16
 TIME_SHIFT_139 NOTE_ON_84 DURATION/10_40
 TIME_SHIFT_1 NOTE_ON_52 DURATION/10_10
 TIME_SHIFT_0 NOTE_ON_45 DURATION/10_105
 TIME_SHIFT_117 NOTE_ON_93 DURATION/10_0
 TIME_SHIFT_2 NOTE_ON_81 DURATION/10_30
 TIME_SHIFT_1 NOTE_ON_52 DURATION/10_176
 TIME_SHIFT_124 NOTE_ON_76 DURATION/10_24
 TIME_SHIFT_14 NOTE_ON_57 DURATION/10_48
 TIME_SHIFT_239 NOTE_ON_76 DURATION/10_40
 TIME_SHIFT_124 NOTE_ON_71 DURATION/10_42
 TIME_SHIFT_123 NOTE_ON_67 DURATION/10_41
 TIME_SHIFT_6 NOTE_ON_57 DURATION/10_15
 TIME_SHIFT_160 NOTE_ON_76 DURATION/10_39
 TIME_SHIFT_3 NOTE_ON_57 DURATION/10_41
 TIME_SHIFT_138 NOTE_ON_71 DURATION/10_31
 TIME_SHIFT_114 NOTE_ON_67 DURATION/10_31
 TIME_SHIFT_162 NOTE_ON_76 DURATION/10_39
 TIME_SHIFT_11 NOTE_ON_57 DURATION/10_22
 TIME_SHIFT_113 NOTE_ON_71 DURATION/10_9
 TIME_SHIFT_114 NOTE_ON_67 DURATION/10_41
 TIME_SHIFT_1 NOTE_ON_57 DURATION/10_66
 TIME_SHIFT_167 NOTE_ON_76 DURATION/10_35
 TIME_SHIFT_7 NOTE_ON_48 DURATION/10_0
 TIME_SHIFT_0 NOTE_ON_59 DURATION/10_48
 TIME_SHIFT_110 NOTE_ON_71 DURATION/10_18
 TIME_SHIFT_130 NOTE_ON_67 DURATION/10_71
 TIME_SHIFT_15 NOTE_ON_48 DURATION/10_1
 TIME_SHIFT_185 NOTE_ON_84 DURATION/10_22
 TIME_SHIFT_0 NOTE_ON_52 DURATION/10_40
 TIME_SHIFT_2 NOTE_ON_48 DURATION/10_19
 TIME_SHIFT_119 NOTE_ON_93 DURATION/10_0
 TIME_SHIFT_1 NOTE_ON_81 DURATION/10_31
 TIME_SHIFT_122 NOTE_ON_76 DURATION/10_33
 TIME_SHIFT_1 NOTE_ON_45 DURATION/10_1
 TIME_SHIFT_0 NOTE_ON_57 DURATION/10_15
 TIME_SHIFT_164 NOTE_ON_84 DURATION/10_28
 TIME_SHIFT_1 NOTE_ON_45 DURATION/10_0
 TIME_SHIFT_2 NOTE_ON_57 DURATION/10_24
 TIME_SHIFT_0 NOTE_ON_52 DURATION/10_27
 TIME_SHIFT_1 NOTE_ON_48 DURATION/10_8
 TIME_SHIFT_111 NOTE_ON_93 DURATION/10_0
 TIME_SHIFT_3 NOTE_ON_81 DURATION/10_25
 TIME_SHIFT_131 NOTE_ON_76 DURATION/10_11
 TIME_SHIFT_3 NOTE_ON_57 DURATION/10_15
 TIME_SHIFT_0 NOTE_ON_60 DURATION/10_17
 TIME_SHIFT_3 NOTE_ON_48 DURATION/10_6
 TIME_SHIFT_139 NOTE_ON_52 DURATION/10_44
 TIME_SHIFT_1 NOTE_ON_58 DURATION/10_0
 TIME_SHIFT_0 NOTE_ON_84 DURATION/10_32
 TIME_SHIFT_1 NOTE_ON_96 DURATION/10_0
 TIME_SHIFT_1 NOTE_ON_48 DURATION/10_18
 TIME_SHIFT_113 NOTE_ON_93 DURATION/10_0
 TIME_SHIFT_1 NOTE_ON_81 DURATION/10_31
 TIME_SHIFT_139 NOTE_ON_76 DURATION/10_21
 TIME_SHIFT_1 NOTE_ON_57 DURATION/10_14
 TIME_SHIFT_153 NOTE_ON_46 DURATION/10_1
 TIME_SHIFT_0 NOTE_ON_57 DURATION/10_5
 TIME_SHIFT_1 NOTE_ON_58 DURATION/10_4
 TIME_SHIFT_0 NOTE_ON_84 DURATION/10_44
 TIME_SHIFT_3 NOTE_ON_96 DURATION/10_0
 TIME_SHIFT_3 NOTE_ON_48 DURATION/10_5
 TIME_SHIFT_105 NOTE_ON_93 DURATION/10_0
 TIME_SHIFT_2 NOTE_ON_81 DURATION/10_31
 TIME_SHIFT_114 NOTE_ON_76 DURATION/10_15
 TIME_SHIFT_0 NOTE_ON_57 DURATION/10_18
 TIME_SHIFT_2 NOTE_ON_60 DURATION/10_0
 TIME_SHIFT_165 NOTE_ON_86 DURATION/10_30
 TIME_SHIFT_2 NOTE_ON_76 DURATION/10_5
 TIME_SHIFT_2 NOTE_ON_58 DURATION/10_0
 TIME_SHIFT_115 NOTE_ON_83 DURATION/10_33
 TIME_SHIFT_127 NOTE_ON_96 DURATION/10_0
 TIME_SHIFT_7 NOTE_ON_58 DURATION/10_0
 TIME_SHIFT_2 NOTE_ON_77 DURATION/10_30
 TIME_SHIFT_1 NOTE_ON_60 DURATION/10_17
 TIME_SHIFT_147 NOTE_ON_76 DURATION/10_21
 TIME_SHIFT_1 NOTE_ON_86 DURATION/10_18
 TIME_SHIFT_8 NOTE_ON_58 DURATION/10_3
 TIME_SHIFT_106 NOTE_ON_83 DURATION/10_35
 TIME_SHIFT_1 NOTE_ON_95 DURATION/10_1
 TIME_SHIFT_1 NOTE_ON_58 DURATION/10_1
 TIME_SHIFT_151 NOTE_ON_58 DURATION/10_2
 TIME_SHIFT_1 NOTE_ON_60 DURATION/10_6
 TIME_SHIFT_0 NOTE_ON_77 DURATION/10_28
 TIME_SHIFT_2 NOTE_ON_65 DURATION/10_19
 TIME_SHIFT_151 NOTE_ON_64 DURATION/10_0
 TIME_SHIFT_0 NOTE_ON_86 DURATION/10_14
 TIME_SHIFT_1 NOTE_ON_76 DURATION/10_34
 TIME_SHIFT_7 NOTE_ON_58 DURATION/10_3
 TIME_SHIFT_101 NOTE_ON_83 DURATION/10_35
 TIME_SHIFT_162 NOTE_ON_96 DURATION/10_1
 TIME_SHIFT_5 NOTE_ON_77 DURATION/10_24
 TIME_SHIFT_4 NOTE_ON_65 DURATION/10_10
 TIME_SHIFT_2 NOTE_ON_59 DURATION/10_9
 TIME_SHIFT_136 NOTE_ON_64 DURATION/10_5
 TIME_SHIFT_0 NOTE_ON_76 DURATION/10_10
 TIME_SHIFT_3 NOTE_ON_86 DURATION/10_10
 TIME_SHIFT_1 NOTE_ON_74 DURATION/10_0
 TIME_SHIFT_2 NOTE_ON_58 DURATION/10_3
 TIME_SHIFT_106 NOTE_ON_58 DURATION/10_0
 TIME_SHIFT_1 NOTE_ON_83 DURATION/10_21
 TIME_SHIFT_133 NOTE_ON_58 DURATION/10_3
 TIME_SHIFT_4 NOTE_ON_65 DURATION/10_0
 TIME_SHIFT_0 NOTE_ON_77 DURATION/10_31
 TIME_SHIFT_1 NOTE_ON_60 DURATION/10_3
 TIME_SHIFT_6 NOTE_ON_61 DURATION/10_0
 TIME_SHIFT_129 NOTE_ON_58 DURATION/10_0
 TIME_SHIFT_2 NOTE_ON_96 DURATION/10_0
 TIME_SHIFT_0 NOTE_ON_84 DURATION/10_30
 TIME_SHIFT_16 NOTE_ON_82 DURATION/10_1
 TIME_SHIFT_103 NOTE_ON_93 DURATION/10_0
 TIME_SHIFT_1 NOTE_ON_57 DURATION/10_0
 TIME_SHIFT_0 NOTE_ON_81 DURATION/10_28
 TIME_SHIFT_121 NOTE_ON_76 DURATION/10_31
 TIME_SHIFT_5 NOTE_ON_60 DURATION/10_4
 TIME_SHIFT_156 NOTE_ON_65 DURATION/10_1
 TIME_SHIFT_5 NOTE_ON_57 DURATION/10_2
 TIME_SHIFT_0 NOTE_ON_84 DURATION/10_28
 TIME_SHIFT_2 NOTE_ON_96 DURATION/10_1
 TIME_SHIFT_1 NOTE_ON_48 DURATION/10_4
 TIME_SHIFT_104 NOTE_ON_93 DURATION/10_0
 TIME_SHIFT_1 NOTE_ON_81 DURATION/10_22
 TIME_SHIFT_153 NOTE_ON_76 DURATION/10_20
 TIME_SHIFT_2 NOTE_ON_58 DURATION/10_1
 TIME_SHIFT_6 NOTE_ON_57 DURATION/10_2
 TIME_SHIFT_16 NOTE_ON_64 DURATION/10_15
 TIME_SHIFT_125 NOTE_ON_84 DURATION/10_29
 TIME_SHIFT_4 NOTE_ON_58 DURATION/10_2
 TIME_SHIFT_1 NOTE_ON_96 DURATION/10_0
 TIME_SHIFT_6 NOTE_ON_48 DURATION/10_3
 TIME_SHIFT_99 NOTE_ON_93 DURATION/10_0
 TIME_SHIFT_2 NOTE_ON_81 DURATION/10_25
 TIME_SHIFT_148 NOTE_ON_76 DURATION/10_17
 TIME_SHIFT_4 NOTE_ON_57 DURATION/10_17
 TIME_SHIFT_1 NOTE_ON_60 DURATION/10_5
 TIME_SHIFT_12 NOTE_ON_88 DURATION/10_5
 TIME_SHIFT_134 NOTE_ON_84 DURATION/10_50
 TIME_SHIFT_2 NOTE_ON_58 DURATION/10_4
 TIME_SHIFT_0 NOTE_ON_61 DURATION/10_6
 TIME_SHIFT_1 NOTE_ON_96 DURATION/10_1
 TIME_SHIFT_109 NOTE_ON_93 DURATION/10_0
 TIME_SHIFT_0 NOTE_ON_81 DURATION/10_21
 TIME_SHIFT_134 NOTE_ON_76 DURATION/10_32
 TIME_SHIFT_1 NOTE_ON_57 DURATION/10_3
 TIME_SHIFT_2 NOTE_ON_60 DURATION/10_2
 TIME_SHIFT_17 NOTE_ON_64 DURATION/10_0
 TIME_SHIFT_134 NOTE_ON_86 DURATION/10_19
 TIME_SHIFT_2 NOTE_ON_57 DURATION/10_15
 TIME_SHIFT_1 NOTE_ON_58 DURATION/10_1
 TIME_SHIFT_4 NOTE_ON_81 DURATION/10_9
 TIME_SHIFT_117 NOTE_ON_95 DURATION/10_0
 TIME_SHIFT_0 NOTE_ON_83 DURATION/10_16
 TIME_SHIFT_1 NOTE_ON_58 DURATION/10_2
 TIME_SHIFT_136 NOTE_ON_96 DURATION/10_0
 TIME_SHIFT_4 NOTE_ON_58 DURATION/10_0
 TIME_SHIFT_2 NOTE_ON_77 DURATION/10_30
 TIME_SHIFT_2 NOTE_ON_65 DURATION/10_0
 TIME_SHIFT_139 NOTE_ON_86 DURATION/10_17
 TIME_SHIFT_2 NOTE_ON_69 DURATION/10_1
 TIME_SHIFT_0 NOTE_ON_66 DURATION/10_4
 TIME_SHIFT_1 NOTE_ON_60 DURATION/10_3
 TIME_SHIFT_3 NOTE_ON_58 DURATION/10_0
 TIME_SHIFT_0 NOTE_ON_81 DURATION/10_8
 TIME_SHIFT_114 NOTE_ON_58 DURATION/10_0
 TIME_SHIFT_0 NOTE_ON_83 DURATION/10_33
 TIME_SHIFT_145 NOTE_ON_58 DURATION/10_5
 TIME_SHIFT_3 NOTE_ON_77 DURATION/10_28
 TIME_SHIFT_147 NOTE_ON_64 DURATION/10_1
 TIME_SHIFT_1 NOTE_ON_86 DURATION/10_6
 TIME_SHIFT_0 NOTE_ON_76 DURATION/10_19
 TIME_SHIFT_5 NOTE_ON_58 DURATION/10_2
 TIME_SHIFT_3 NOTE_ON_81 DURATION/10_18
 TIME_SHIFT_100 NOTE_ON_82 DURATION/10_1
 TIME_SHIFT_2 NOTE_ON_83 DURATION/10_41
 TIME_SHIFT_1 NOTE_ON_58 DURATION/10_0
 TIME_SHIFT_151 NOTE_ON_58 DURATION/10_0
 TIME_SHIFT_0 NOTE_ON_77 DURATION/10_20
 TIME_SHIFT_4 NOTE_ON_65 DURATION/10_0
 TIME_SHIFT_9 NOTE_ON_53 DURATION/10_1
 TIME_SHIFT_144 NOTE_ON_86 DURATION/10_14
 TIME_SHIFT_1 NOTE_ON_74 DURATION/10_0
 TIME_SHIFT_0 NOTE_ON_76 DURATION/10_68
 TIME_SHIFT_1 NOTE_ON_64 DURATION/10_5
 TIME_SHIFT_2 NOTE_ON_58 DURATION/10_3
 TIME_SHIFT_107 NOTE_ON_83 DURATION/10_94
 TIME_SHIFT_5 NOTE_ON_58 DURATION/10_0
 TIME_SHIFT_170 NOTE_ON_77 DURATION/10_207
 TIME_SHIFT_3 NOTE_ON_58 DURATION/10_0
 TIME_SHIFT_5 NOTE_ON_67 DURATION/10_203
 TIME_SHIFT_1989 NOTE_ON_58 DURATION/10_0
 TIME_SHIFT_0 NOTE_ON_84 DURATION/10_38
 TIME_SHIFT_1 NOTE_ON_96 DURATION/10_1
 TIME_SHIFT_5 NOTE_ON_48 DURATION/10_0
 TIME_SHIFT_1 NOTE_ON_60 DURATION/10_0
 TIME_SHIFT_94 NOTE_ON_93 DURATION/10_1
 TIME_SHIFT_2 NOTE_ON_81 DURATION/10_29
 TIME_SHIFT_127 NOTE_ON_76 DURATION/10_15
 TIME_SHIFT_8 NOTE_ON_57 DURATION/10_3
 TIME_SHIFT_10 NOTE_ON_64 DURATION/10_17
 TIME_SHIFT_149 NOTE_ON_57 DURATION/10_4
 TIME_SHIFT_0 NOTE_ON_84 DURATION/10_36
 TIME_SHIFT_1 NOTE_ON_60 DURATION/10_4
 TIME_SHIFT_1 NOTE_ON_96 DURATION/10_0
 TIME_SHIFT_7 NOTE_ON_48 DURATION/10_0
 TIME_SHIFT_107 NOTE_ON_93 DURATION/10_0
 TIME_SHIFT_1 NOTE_ON_81 DURATION/10_28
 TIME_SHIFT_133 NOTE_ON_76 DURATION/10_8
 TIME_SHIFT_3 NOTE_ON_58 DURATION/10_0
 TIME_SHIFT_146 NOTE_ON_66 DURATION/10_0
 TIME_SHIFT_2 NOTE_ON_84 DURATION/10_39
 TIME_SHIFT_1 NOTE_ON_96 DURATION/10_1
 TIME_SHIFT_0 NOTE_ON_57 DURATION/10_2
 TIME_SHIFT_1 NOTE_ON_60 DURATION/10_3
 TIME_SHIFT_5 NOTE_ON_48 DURATION/10_5
 TIME_SHIFT_108 NOTE_ON_93 DURATION/10_0
 TIME_SHIFT_1 NOTE_ON_57 DURATION/10_0
 TIME_SHIFT_0 NOTE_ON_81 DURATION/10_29
 TIME_SHIFT_114 NOTE_ON_76 DURATION/10_3
 TIME_SHIFT_176 NOTE_ON_84 DURATION/10_45
 TIME_SHIFT_2 NOTE_ON_96 DURATION/10_1
 TIME_SHIFT_1 NOTE_ON_58 DURATION/10_3
 TIME_SHIFT_2 NOTE_ON_57 DURATION/10_3
 TIME_SHIFT_6 NOTE_ON_48 DURATION/10_2
 TIME_SHIFT_100 NOTE_ON_93 DURATION/10_1
 TIME_SHIFT_1 NOTE_ON_81 DURATION/10_25
 TIME_SHIFT_113 NOTE_ON_57 DURATION/10_10
 TIME_SHIFT_0 NOTE_ON_76 DURATION/10_20
 TIME_SHIFT_170 NOTE_ON_86 DURATION/10_14
 TIME_SHIFT_6 NOTE_ON_58 DURATION/10_1
 TIME_SHIFT_0 NOTE_ON_57 DURATION/10_7
 TIME_SHIFT_8 NOTE_ON_81 DURATION/10_19
 TIME_SHIFT_106 NOTE_ON_58 DURATION/10_4
 TIME_SHIFT_0 NOTE_ON_83 DURATION/10_30
 TIME_SHIFT_134 NOTE_ON_58 DURATION/10_2
 TIME_SHIFT_4 NOTE_ON_57 DURATION/10_0
 TIME_SHIFT_0 NOTE_ON_60 DURATION/10_10
 TIME_SHIFT_1 NOTE_ON_77 DURATION/10_21
 TIME_SHIFT_2 NOTE_ON_65 DURATION/10_17
 TIME_SHIFT_144 NOTE_ON_86 DURATION/10_13
 TIME_SHIFT_1 NOTE_ON_76 DURATION/10_17
 TIME_SHIFT_1 NOTE_ON_66 DURATION/10_1
 TIME_SHIFT_4 NOTE_ON_58 DURATION/10_2
 TIME_SHIFT_2 NOTE_ON_61 DURATION/10_0
 TIME_SHIFT_106 NOTE_ON_83 DURATION/10_36
 TIME_SHIFT_1 NOTE_ON_58 DURATION/10_0
 TIME_SHIFT_145 NOTE_ON_65 DURATION/10_0
 TIME_SHIFT_1 NOTE_ON_77 DURATION/10_35
 TIME_SHIFT_1 NOTE_ON_60 DURATION/10_18
 TIME_SHIFT_0 NOTE_ON_57 DURATION/10_18
 TIME_SHIFT_153 NOTE_ON_86 DURATION/10_21
 TIME_SHIFT_5 NOTE_ON_65 DURATION/10_3
 TIME_SHIFT_1 NOTE_ON_58 DURATION/10_3
 TIME_SHIFT_0 NOTE_ON_76 DURATION/10_19
 TIME_SHIFT_2 NOTE_ON_61 DURATION/10_4
 TIME_SHIFT_12 NOTE_ON_81 DURATION/10_0
 TIME_SHIFT_103 NOTE_ON_83 DURATION/10_32
 TIME_SHIFT_137 NOTE_ON_77 DURATION/10_35
 TIME_SHIFT_162 NOTE_ON_86 DURATION/10_8
 TIME_SHIFT_1 NOTE_ON_76 DURATION/10_5
 TIME_SHIFT_1 NOTE_ON_66 DURATION/10_1
 TIME_SHIFT_4 NOTE_ON_78 DURATION/10_0
 TIME_SHIFT_2 NOTE_ON_58 DURATION/10_3
 TIME_SHIFT_1 NOTE_ON_61 DURATION/10_4
 TIME_SHIFT_0 NOTE_ON_81 DURATION/10_15
 TIME_SHIFT_115 NOTE_ON_83 DURATION/10_35
 TIME_SHIFT_3 NOTE_ON_58 DURATION/10_0
 TIME_SHIFT_151 NOTE_ON_58 DURATION/10_2
 TIME_SHIFT_2 NOTE_ON_57 DURATION/10_0
 TIME_SHIFT_0 NOTE_ON_77 DURATION/10_30
 TIME_SHIFT_3 NOTE_ON_60 DURATION/10_21
 TIME_SHIFT_8 NOTE_ON_76 DURATION/10_15
 TIME_SHIFT_159 NOTE_ON_76 DURATION/10_42
 TIME_SHIFT_1 NOTE_ON_86 DURATION/10_9
 TIME_SHIFT_3 NOTE_ON_58 DURATION/10_3
 TIME_SHIFT_3 NOTE_ON_66 DURATION/10_3
 TIME_SHIFT_2 NOTE_ON_61 DURATION/10_0
 TIME_SHIFT_2 NOTE_ON_78 DURATION/10_0
 TIME_SHIFT_0 NOTE_ON_81 DURATION/10_8
 TIME_SHIFT_117 NOTE_ON_83 DURATION/10_34
 TIME_SHIFT_138 NOTE_ON_96 DURATION/10_1
 TIME_SHIFT_12 NOTE_ON_77 DURATION/10_29
 TIME_SHIFT_2 NOTE_ON_57 DURATION/10_1
 TIME_SHIFT_146 NOTE_ON_86 DURATION/10_6
 TIME_SHIFT_1 NOTE_ON_74 DURATION/10_1
 TIME_SHIFT_0 NOTE_ON_76 DURATION/10_18
 TIME_SHIFT_3 NOTE_ON_58 DURATION/10_3
 TIME_SHIFT_3 NOTE_ON_66 DURATION/10_0
 TIME_SHIFT_0 NOTE_ON_81 DURATION/10_7
 TIME_SHIFT_1 NOTE_ON_65 DURATION/10_1
 TIME_SHIFT_116 NOTE_ON_83 DURATION/10_31
 TIME_SHIFT_131 NOTE_ON_77 DURATION/10_34
 TIME_SHIFT_154 NOTE_ON_86 DURATION/10_8
 TIME_SHIFT_4 NOTE_ON_76 DURATION/10_42
 TIME_SHIFT_2 NOTE_ON_60 DURATION/10_2
 TIME_SHIFT_3 NOTE_ON_57 DURATION/10_2
 TIME_SHIFT_2 NOTE_ON_58 DURATION/10_0
 TIME_SHIFT_1 NOTE_ON_81 DURATION/10_19
 TIME_SHIFT_109 NOTE_ON_83 DURATION/10_34
 TIME_SHIFT_162 NOTE_ON_77 DURATION/10_41
 TIME_SHIFT_154 NOTE_ON_86 DURATION/10_8
 TIME_SHIFT_2 NOTE_ON_76 DURATION/10_113
 TIME_SHIFT_1 NOTE_ON_74 DURATION/10_0
 TIME_SHIFT_3 NOTE_ON_81 DURATION/10_41
 TIME_SHIFT_1 NOTE_ON_58 DURATION/10_4
 TIME_SHIFT_4 NOTE_ON_61 DURATION/10_0
 TIME_SHIFT_104 NOTE_ON_83 DURATION/10_160
 TIME_SHIFT_152 NOTE_ON_77 DURATION/10_161
 TIME_SHIFT_4 NOTE_ON_60 DURATION/10_125
 TIME_SHIFT_3 NOTE_ON_48 DURATION/10_0
 TIME_SHIFT_626 NOTE_ON_84 DURATION/10_40
 TIME_SHIFT_5 NOTE_ON_45 DURATION/10_22
 TIME_SHIFT_3 NOTE_ON_48 DURATION/10_54
 TIME_SHIFT_108 NOTE_ON_52 DURATION/10_43
 TIME_SHIFT_4 NOTE_ON_81 DURATION/10_41
 TIME_SHIFT_1 NOTE_ON_93 DURATION/10_1
 TIME_SHIFT_122 NOTE_ON_45 DURATION/10_17
 TIME_SHIFT_0 NOTE_ON_57 DURATION/10_17
 TIME_SHIFT_7 NOTE_ON_76 DURATION/10_42
 TIME_SHIFT_167 NOTE_ON_84 DURATION/10_42
 TIME_SHIFT_4 NOTE_ON_57 DURATION/10_24
 TIME_SHIFT_0 NOTE_ON_45 DURATION/10_42
 TIME_SHIFT_122 NOTE_ON_93 DURATION/10_1
 TIME_SHIFT_0 NOTE_ON_81 DURATION/10_41
 TIME_SHIFT_11 NOTE_ON_52 DURATION/10_41
 TIME_SHIFT_126 NOTE_ON_57 DURATION/10_42
 TIME_SHIFT_1 NOTE_ON_76 DURATION/10_43
 TIME_SHIFT_169 NOTE_ON_84 DURATION/10_42
 TIME_SHIFT_2 NOTE_ON_45 DURATION/10_43
 TIME_SHIFT_2 NOTE_ON_96 DURATION/10_0
 TIME_SHIFT_115 NOTE_ON_93 DURATION/10_0
 TIME_SHIFT_3 NOTE_ON_81 DURATION/10_42
 TIME_SHIFT_8 NOTE_ON_52 DURATION/10_45
 TIME_SHIFT_139 NOTE_ON_57 DURATION/10_44
 TIME_SHIFT_3 NOTE_ON_76 DURATION/10_41
 TIME_SHIFT_165 NOTE_ON_84 DURATION/10_64
 TIME_SHIFT_4 NOTE_ON_45 DURATION/10_104
 TIME_SHIFT_116 NOTE_ON_93 DURATION/10_0
 TIME_SHIFT_1 NOTE_ON_81 DURATION/10_52
 TIME_SHIFT_34 NOTE_ON_52 DURATION/10_49
 TIME_SHIFT_101 NOTE_ON_76 DURATION/10_33
 TIME_SHIFT_30 NOTE_ON_57 DURATION/10_88
 TIME_SHIFT_307 NOTE_ON_76 DURATION/10_17
 TIME_SHIFT_0 NOTE_ON_86 DURATION/10_42
 TIME_SHIFT_5 NOTE_ON_47 DURATION/10_42
 TIME_SHIFT_118 NOTE_ON_83 DURATION/10_44
 TIME_SHIFT_14 NOTE_ON_53 DURATION/10_43
 TIME_SHIFT_7 NOTE_ON_65 DURATION/10_0
 TIME_SHIFT_123 NOTE_ON_59 DURATION/10_45
 TIME_SHIFT_14 NOTE_ON_77 DURATION/10_44
 TIME_SHIFT_152 NOTE_ON_86 DURATION/10_43
 TIME_SHIFT_4 NOTE_ON_81 DURATION/10_46
 TIME_SHIFT_1 NOTE_ON_76 DURATION/10_42
 TIME_SHIFT_1 NOTE_ON_47 DURATION/10_43
 TIME_SHIFT_136 NOTE_ON_83 DURATION/10_41
 TIME_SHIFT_1 NOTE_ON_53 DURATION/10_43
 TIME_SHIFT_3 NOTE_ON_65 DURATION/10_85
 TIME_SHIFT_148 NOTE_ON_59 DURATION/10_42
 TIME_SHIFT_2 NOTE_ON_77 DURATION/10_40
 TIME_SHIFT_141 NOTE_ON_86 DURATION/10_41
 TIME_SHIFT_3 NOTE_ON_76 DURATION/10_49
 TIME_SHIFT_5 NOTE_ON_47 DURATION/10_42
 TIME_SHIFT_124 NOTE_ON_83 DURATION/10_40
 TIME_SHIFT_12 NOTE_ON_95 DURATION/10_1
 TIME_SHIFT_0 NOTE_ON_53 DURATION/10_39
 TIME_SHIFT_129 NOTE_ON_77 DURATION/10_21
 TIME_SHIFT_17 NOTE_ON_59 DURATION/10_34
 TIME_SHIFT_128 NOTE_ON_81 DURATION/10_53
 TIME_SHIFT_2 NOTE_ON_86 DURATION/10_210
 TIME_SHIFT_18 NOTE_ON_47 DURATION/10_112
 TIME_SHIFT_110 NOTE_ON_53 DURATION/10_127
 TIME_SHIFT_1 NOTE_ON_83 DURATION/10_209
 TIME_SHIFT_93 NOTE_ON_59 DURATION/10_212
 TIME_SHIFT_56 NOTE_ON_77 DURATION/10_154
 TIME_SHIFT_132 NOTE_ON_45 DURATION/10_43
 TIME_SHIFT_5 NOTE_ON_84 DURATION/10_41
 TIME_SHIFT_122 NOTE_ON_93 DURATION/10_1
 TIME_SHIFT_2 NOTE_ON_81 DURATION/10_42
 TIME_SHIFT_1 NOTE_ON_52 DURATION/10_42
 TIME_SHIFT_115 NOTE_ON_57 DURATION/10_44
 TIME_SHIFT_31 NOTE_ON_76 DURATION/10_40
 TIME_SHIFT_158 NOTE_ON_84 DURATION/10_40
 TIME_SHIFT_5 NOTE_ON_45 DURATION/10_42
 TIME_SHIFT_3 NOTE_ON_48 DURATION/10_0
 TIME_SHIFT_119 NOTE_ON_93 DURATION/10_0
 TIME_SHIFT_3 NOTE_ON_52 DURATION/10_41
 TIME_SHIFT_1 NOTE_ON_81 DURATION/10_39
 TIME_SHIFT_130 NOTE_ON_76 DURATION/10_40
 TIME_SHIFT_1 NOTE_ON_57 DURATION/10_41
 TIME_SHIFT_153 NOTE_ON_96 DURATION/10_1
 TIME_SHIFT_0 NOTE_ON_84 DURATION/10_41
 TIME_SHIFT_17 NOTE_ON_45 DURATION/10_40
 TIME_SHIFT_105 NOTE_ON_93 DURATION/10_0
 TIME_SHIFT_0 NOTE_ON_81 DURATION/10_41
 TIME_SHIFT_9 NOTE_ON_52 DURATION/10_41
 TIME_SHIFT_128 NOTE_ON_76 DURATION/10_42
 TIME_SHIFT_3 NOTE_ON_57 DURATION/10_41
 TIME_SHIFT_160 NOTE_ON_84 DURATION/10_146
 TIME_SHIFT_1 NOTE_ON_45 DURATION/10_136
 TIME_SHIFT_4 NOTE_ON_96 DURATION/10_0
 TIME_SHIFT_118 NOTE_ON_93 DURATION/10_1
 TIME_SHIFT_1 NOTE_ON_81 DURATION/10_28
 TIME_SHIFT_5 NOTE_ON_52 DURATION/10_123
 TIME_SHIFT_133 NOTE_ON_76 DURATION/10_58
 TIME_SHIFT_1 NOTE_ON_57 DURATION/10_57
 TIME_SHIFT_145 NOTE_ON_47 DURATION/10_26
 TIME_SHIFT_9 NOTE_ON_81 DURATION/10_25
 TIME_SHIFT_12 NOTE_ON_86 DURATION/10_41
 TIME_SHIFT_117 NOTE_ON_53 DURATION/10_41
 TIME_SHIFT_0 NOTE_ON_65 DURATION/10_162
 TIME_SHIFT_6 NOTE_ON_83 DURATION/10_41
 TIME_SHIFT_123 NOTE_ON_59 DURATION/10_42
 TIME_SHIFT_1 NOTE_ON_47 DURATION/10_16
 TIME_SHIFT_8 NOTE_ON_81 DURATION/10_15
 TIME_SHIFT_1 NOTE_ON_77 DURATION/10_41
 TIME_SHIFT_159 NOTE_ON_81 DURATION/10_12
 TIME_SHIFT_2 NOTE_ON_86 DURATION/10_41
 TIME_SHIFT_5 NOTE_ON_47 DURATION/10_41
 TIME_SHIFT_1 NOTE_ON_57 DURATION/10_133
 TIME_SHIFT_118 NOTE_ON_53 DURATION/10_42
 TIME_SHIFT_5 NOTE_ON_83 DURATION/10_41
 TIME_SHIFT_3 NOTE_ON_81 DURATION/10_72
 TIME_SHIFT_130 NOTE_ON_59 DURATION/10_42
 TIME_SHIFT_2 NOTE_ON_77 DURATION/10_15
 TIME_SHIFT_157 NOTE_ON_86 DURATION/10_42
 TIME_SHIFT_2 NOTE_ON_77 DURATION/10_26
 TIME_SHIFT_5 NOTE_ON_47 DURATION/10_43
 TIME_SHIFT_123 NOTE_ON_83 DURATION/10_42
 TIME_SHIFT_6 NOTE_ON_53 DURATION/10_42
 TIME_SHIFT_138 NOTE_ON_77 DURATION/10_42
 TIME_SHIFT_2 NOTE_ON_59 DURATION/10_40
 TIME_SHIFT_161 NOTE_ON_86 DURATION/10_45
 TIME_SHIFT_9 NOTE_ON_81 DURATION/10_11
 TIME_SHIFT_6 NOTE_ON_47 DURATION/10_24
 TIME_SHIFT_109 NOTE_ON_83 DURATION/10_93
 TIME_SHIFT_6 NOTE_ON_53 DURATION/10_74
 TIME_SHIFT_1 NOTE_ON_81 DURATION/10_35
 TIME_SHIFT_118 NOTE_ON_59 DURATION/10_21
 TIME_SHIFT_21 NOTE_ON_77 DURATION/10_22
 TIME_SHIFT_146 NOTE_ON_45 DURATION/10_41
 TIME_SHIFT_7 NOTE_ON_84 DURATION/10_15
 TIME_SHIFT_116 NOTE_ON_81 DURATION/10_41
 TIME_SHIFT_14 NOTE_ON_52 DURATION/10_39
 TIME_SHIFT_120 NOTE_ON_57 DURATION/10_40
 TIME_SHIFT_10 NOTE_ON_76 DURATION/10_39
 TIME_SHIFT_148 NOTE_ON_45 DURATION/10_42
 TIME_SHIFT_2 NOTE_ON_84 DURATION/10_42
 TIME_SHIFT_122 NOTE_ON_93 DURATION/10_1
 TIME_SHIFT_0 NOTE_ON_52 DURATION/10_30
 TIME_SHIFT_1 NOTE_ON_81 DURATION/10_43
 TIME_SHIFT_129 NOTE_ON_57 DURATION/10_42
 TIME_SHIFT_1 NOTE_ON_76 DURATION/10_42
 TIME_SHIFT_175 NOTE_ON_84 DURATION/10_41
 TIME_SHIFT_2 NOTE_ON_45 DURATION/10_41
 TIME_SHIFT_0 NOTE_ON_52 DURATION/10_54
 TIME_SHIFT_3 NOTE_ON_96 DURATION/10_0
 TIME_SHIFT_125 NOTE_ON_81 DURATION/10_35
 TIME_SHIFT_1 NOTE_ON_93 DURATION/10_1
 TIME_SHIFT_123 NOTE_ON_57 DURATION/10_41
 TIME_SHIFT_1 NOTE_ON_76 DURATION/10_21
 TIME_SHIFT_169 NOTE_ON_84 DURATION/10_44
 TIME_SHIFT_2 NOTE_ON_96 DURATION/10_0
 TIME_SHIFT_4 NOTE_ON_45 DURATION/10_107
 TIME_SHIFT_121 NOTE_ON_93 DURATION/10_0
 TIME_SHIFT_2 NOTE_ON_81 DURATION/10_34
 TIME_SHIFT_3 NOTE_ON_64 DURATION/10_0
 TIME_SHIFT_1 NOTE_ON_52 DURATION/10_146
 TIME_SHIFT_143 NOTE_ON_57 DURATION/10_50
 TIME_SHIFT_2 NOTE_ON_69 DURATION/10_14
 TIME_SHIFT_3 NOTE_ON_76 DURATION/10_25
 TIME_SHIFT_255 NOTE_ON_76 DURATION/10_24
 TIME_SHIFT_136 NOTE_ON_71 DURATION/10_40
 TIME_SHIFT_123 NOTE_ON_67 DURATION/10_41
 TIME_SHIFT_1 NOTE_ON_57 DURATION/10_16
 TIME_SHIFT_170 NOTE_ON_76 DURATION/10_38
 TIME_SHIFT_1 NOTE_ON_57 DURATION/10_24
 TIME_SHIFT_115 NOTE_ON_71 DURATION/10_34
 TIME_SHIFT_131 NOTE_ON_67 DURATION/10_29
 TIME_SHIFT_3 NOTE_ON_57 DURATION/10_14
 TIME_SHIFT_148 NOTE_ON_95 DURATION/10_0
 TIME_SHIFT_1 NOTE_ON_76 DURATION/10_21
 TIME_SHIFT_3 NOTE_ON_57 DURATION/10_63
 TIME_SHIFT_7 NOTE_ON_88 DURATION/10_0
 TIME_SHIFT_112 NOTE_ON_71 DURATION/10_2
 TIME_SHIFT_118 NOTE_ON_67 DURATION/10_14
 TIME_SHIFT_4 NOTE_ON_52 DURATION/10_17
 TIME_SHIFT_3 NOTE_ON_79 DURATION/10_21
 TIME_SHIFT_147 NOTE_ON_76 DURATION/10_16
 TIME_SHIFT_1 NOTE_ON_59 DURATION/10_24
 TIME_SHIFT_2 NOTE_ON_67 DURATION/10_23
 TIME_SHIFT_1 NOTE_ON_88 DURATION/10_5
 TIME_SHIFT_108 NOTE_ON_71 DURATION/10_10
 TIME_SHIFT_138 NOTE_ON_79 DURATION/10_36
 TIME_SHIFT_0 NOTE_ON_67 DURATION/10_144
 TIME_SHIFT_1 NOTE_ON_57 DURATION/10_2
 TIME_SHIFT_1 NOTE_ON_59 DURATION/10_28
 TIME_SHIFT_191 NOTE_ON_58 DURATION/10_0
 TIME_SHIFT_1 NOTE_ON_84 DURATION/10_20
 TIME_SHIFT_0 NOTE_ON_57 DURATION/10_28
 TIME_SHIFT_2 NOTE_ON_96 DURATION/10_0
 TIME_SHIFT_107 NOTE_ON_93 DURATION/10_0
 TIME_SHIFT_1 NOTE_ON_81 DURATION/10_31
 TIME_SHIFT_145 NOTE_ON_76 DURATION/10_35
 TIME_SHIFT_13 NOTE_ON_58 DURATION/10_0
 TIME_SHIFT_10 NOTE_ON_64 DURATION/10_0
 TIME_SHIFT_6 NOTE_ON_57 DURATION/10_58
 TIME_SHIFT_139 NOTE_ON_84 DURATION/10_31
 TIME_SHIFT_4 NOTE_ON_96 DURATION/10_0
 TIME_SHIFT_1 NOTE_ON_58 DURATION/10_9
 TIME_SHIFT_102 NOTE_ON_93 DURATION/10_1
 TIME_SHIFT_1 NOTE_ON_81 DURATION/10_32
 TIME_SHIFT_150 NOTE_ON_76 DURATION/10_36
 TIME_SHIFT_1 NOTE_ON_60 DURATION/10_62
 TIME_SHIFT_1 NOTE_ON_58 DURATION/10_1
 TIME_SHIFT_2 NOTE_ON_64 DURATION/10_31
 TIME_SHIFT_5 NOTE_ON_88 DURATION/10_0
 TIME_SHIFT_145 NOTE_ON_84 DURATION/10_38
 TIME_SHIFT_2 NOTE_ON_96 DURATION/10_1
 TIME_SHIFT_0 NOTE_ON_58 DURATION/10_8
 TIME_SHIFT_0 NOTE_ON_66 DURATION/10_13
 TIME_SHIFT_108 NOTE_ON_93 DURATION/10_1
 TIME_SHIFT_1 NOTE_ON_81 DURATION/10_27
 TIME_SHIFT_132 NOTE_ON_76 DURATION/10_20
 TIME_SHIFT_5 NOTE_ON_64 DURATION/10_28
 TIME_SHIFT_2 NOTE_ON_58 DURATION/10_0
 TIME_SHIFT_7 NOTE_ON_88 DURATION/10_0
 TIME_SHIFT_131 NOTE_ON_58 DURATION/10_9
 TIME_SHIFT_0 NOTE_ON_66 DURATION/10_18
 TIME_SHIFT_2 NOTE_ON_84 DURATION/10_47
 TIME_SHIFT_1 NOTE_ON_96 DURATION/10_0
 TIME_SHIFT_1 NOTE_ON_61 DURATION/10_0
 TIME_SHIFT_125 NOTE_ON_93 DURATION/10_1
 TIME_SHIFT_0 NOTE_ON_81 DURATION/10_21
 TIME_SHIFT_4 NOTE_ON_57 DURATION/10_0
 TIME_SHIFT_129 NOTE_ON_66 DURATION/10_9
 TIME_SHIFT_2 NOTE_ON_76 DURATION/10_28
 TIME_SHIFT_12 NOTE_ON_57 DURATION/10_20
 TIME_SHIFT_4 NOTE_ON_88 DURATION/10_25
 TIME_SHIFT_132 NOTE_ON_86 DURATION/10_41
 TIME_SHIFT_4 NOTE_ON_58 DURATION/10_0
 TIME_SHIFT_3 NOTE_ON_98 DURATION/10_0
 TIME_SHIFT_0 NOTE_ON_69 DURATION/10_17
 TIME_SHIFT_4 NOTE_ON_81 DURATION/10_11
 TIME_SHIFT_2 NOTE_ON_93 DURATION/10_0
 TIME_SHIFT_102 NOTE_ON_95 DURATION/10_0
 TIME_SHIFT_0 NOTE_ON_83 DURATION/10_35
 TIME_SHIFT_1 NOTE_ON_58 DURATION/10_2
 TIME_SHIFT_141 NOTE_ON_58 DURATION/10_0
 TIME_SHIFT_0 NOTE_ON_96 DURATION/10_0
 TIME_SHIFT_0 NOTE_ON_101 DURATION/10_0
 TIME_SHIFT_5 NOTE_ON_77 DURATION/10_40
 TIME_SHIFT_6 NOTE_ON_65 DURATION/10_0
 TIME_SHIFT_5 NOTE_ON_89 DURATION/10_0
 TIME_SHIFT_141 NOTE_ON_74 DURATION/10_0
 TIME_SHIFT_1 NOTE_ON_76 DURATION/10_21
 TIME_SHIFT_1 NOTE_ON_86 DURATION/10_23
 TIME_SHIFT_1 NOTE_ON_64 DURATION/10_4
 TIME_SHIFT_2 NOTE_ON_81 DURATION/10_14
 TIME_SHIFT_3 NOTE_ON_58 DURATION/10_1
 TIME_SHIFT_106 NOTE_ON_83 DURATION/10_25
 TIME_SHIFT_1 NOTE_ON_95 DURATION/10_0
 TIME_SHIFT_1 NOTE_ON_58 DURATION/10_0
 TIME_SHIFT_135 NOTE_ON_96 DURATION/10_0
 TIME_SHIFT_4 NOTE_ON_58 DURATION/10_1
 TIME_SHIFT_4 NOTE_ON_77 DURATION/10_23
 TIME_SHIFT_7 NOTE_ON_64 DURATION/10_0
 TIME_SHIFT_12 NOTE_ON_89 DURATION/10_1
 TIME_SHIFT_125 NOTE_ON_74 DURATION/10_0
 TIME_SHIFT_2 NOTE_ON_86 DURATION/10_9
 TIME_SHIFT_0 NOTE_ON_76 DURATION/10_35
 TIME_SHIFT_1 NOTE_ON_64 DURATION/10_4
 TIME_SHIFT_3 NOTE_ON_81 DURATION/10_21
 TIME_SHIFT_1 NOTE_ON_58 DURATION/10_3
 TIME_SHIFT_121 NOTE_ON_95 DURATION/10_0
 TIME_SHIFT_0 NOTE_ON_83 DURATION/10_31
 TIME_SHIFT_1 NOTE_ON_58 DURATION/10_1
 TIME_SHIFT_119 NOTE_ON_96 DURATION/10_0
 TIME_SHIFT_6 NOTE_ON_58 DURATION/10_0
 TIME_SHIFT_2 NOTE_ON_77 DURATION/10_19
 TIME_SHIFT_5 NOTE_ON_89 DURATION/10_0
 TIME_SHIFT_0 NOTE_ON_65 DURATION/10_10
 TIME_SHIFT_137 NOTE_ON_86 DURATION/10_7
 TIME_SHIFT_1 NOTE_ON_76 DURATION/10_20
 TIME_SHIFT_1 NOTE_ON_74 DURATION/10_0
 TIME_SHIFT_5 NOTE_ON_58 DURATION/10_3
 TIME_SHIFT_1 NOTE_ON_61 DURATION/10_1
 TIME_SHIFT_1 NOTE_ON_81 DURATION/10_15
 TIME_SHIFT_121 NOTE_ON_95 DURATION/10_1
 TIME_SHIFT_0 NOTE_ON_83 DURATION/10_45
 TIME_SHIFT_2 NOTE_ON_58 DURATION/10_3
 TIME_SHIFT_1 NOTE_ON_46 DURATION/10_0
 TIME_SHIFT_114 NOTE_ON_96 DURATION/10_0
 TIME_SHIFT_3 NOTE_ON_77 DURATION/10_38
 TIME_SHIFT_1 NOTE_ON_65 DURATION/10_0
 TIME_SHIFT_7 NOTE_ON_60 DURATION/10_0
 TIME_SHIFT_123 NOTE_ON_86 DURATION/10_0
 TIME_SHIFT_8 NOTE_ON_84 DURATION/10_29
 TIME_SHIFT_1 NOTE_ON_96 DURATION/10_0
 TIME_SHIFT_1 NOTE_ON_58 DURATION/10_5
 TIME_SHIFT_126 NOTE_ON_93 DURATION/10_0
 TIME_SHIFT_1 NOTE_ON_57 DURATION/10_13
 TIME_SHIFT_1 NOTE_ON_81 DURATION/10_29
 TIME_SHIFT_135 NOTE_ON_76 DURATION/10_21
 TIME_SHIFT_5 NOTE_ON_58 DURATION/10_1
 TIME_SHIFT_1 NOTE_ON_46 DURATION/10_1
 TIME_SHIFT_0 NOTE_ON_57 DURATION/10_4
 TIME_SHIFT_144 NOTE_ON_84 DURATION/10_39
 TIME_SHIFT_1 NOTE_ON_96 DURATION/10_1
 TIME_SHIFT_1 NOTE_ON_58 DURATION/10_3
 TIME_SHIFT_6 NOTE_ON_61 DURATION/10_0
 TIME_SHIFT_101 NOTE_ON_93 DURATION/10_1
 TIME_SHIFT_1 NOTE_ON_81 DURATION/10_24
 TIME_SHIFT_2 NOTE_ON_57 DURATION/10_0
 TIME_SHIFT_135 NOTE_ON_76 DURATION/10_7
 TIME_SHIFT_3 NOTE_ON_57 DURATION/10_18
 TIME_SHIFT_15 NOTE_ON_88 DURATION/10_4
 TIME_SHIFT_137 NOTE_ON_84 DURATION/10_37
 TIME_SHIFT_3 NOTE_ON_96 DURATION/10_0
 TIME_SHIFT_1 NOTE_ON_60 DURATION/10_2
 TIME_SHIFT_1 NOTE_ON_64 DURATION/10_4
 TIME_SHIFT_1 NOTE_ON_58 DURATION/10_2
 TIME_SHIFT_98 NOTE_ON_93 DURATION/10_0
 TIME_SHIFT_1 NOTE_ON_81 DURATION/10_19
 TIME_SHIFT_141 NOTE_ON_76 DURATION/10_7
 TIME_SHIFT_5 NOTE_ON_58 DURATION/10_0
 TIME_SHIFT_132 NOTE_ON_57 DURATION/10_1
 TIME_SHIFT_1 NOTE_ON_84 DURATION/10_53
 TIME_SHIFT_3 NOTE_ON_96 DURATION/10_0
 TIME_SHIFT_120 NOTE_ON_93 DURATION/10_1
 TIME_SHIFT_1 NOTE_ON_57 DURATION/10_3
 TIME_SHIFT_0 NOTE_ON_81 DURATION/10_20
 TIME_SHIFT_2 NOTE_ON_61 DURATION/10_0
 TIME_SHIFT_113 NOTE_ON_76 DURATION/10_18
 TIME_SHIFT_5 NOTE_ON_57 DURATION/10_15
 TIME_SHIFT_16 NOTE_ON_88 DURATION/10_4
 TIME_SHIFT_135 NOTE_ON_74 DURATION/10_0
 TIME_SHIFT_1 NOTE_ON_86 DURATION/10_16
 TIME_SHIFT_2 NOTE_ON_58 DURATION/10_2
 TIME_SHIFT_0 NOTE_ON_69 DURATION/10_5
 TIME_SHIFT_0 NOTE_ON_81 DURATION/10_21
 TIME_SHIFT_1 NOTE_ON_64 DURATION/10_4
 TIME_SHIFT_1 NOTE_ON_57 DURATION/10_2
 TIME_SHIFT_3 NOTE_ON_93 DURATION/10_0
 TIME_SHIFT_103 NOTE_ON_95 DURATION/10_1
 TIME_SHIFT_1 NOTE_ON_83 DURATION/10_33
 TIME_SHIFT_5 NOTE_ON_58 DURATION/10_0
 TIME_SHIFT_144 NOTE_ON_58 DURATION/10_2
 TIME_SHIFT_1 NOTE_ON_77 DURATION/10_30
 TIME_SHIFT_2 NOTE_ON_65 DURATION/10_0
 TIME_SHIFT_141 NOTE_ON_86 DURATION/10_7
 TIME_SHIFT_2 NOTE_ON_81 DURATION/10_29
 TIME_SHIFT_2 NOTE_ON_76 DURATION/10_22
 TIME_SHIFT_1 NOTE_ON_69 DURATION/10_1
 TIME_SHIFT_2 NOTE_ON_58 DURATION/10_3
 TIME_SHIFT_0 NOTE_ON_66 DURATION/10_4
 TIME_SHIFT_122 NOTE_ON_83 DURATION/10_31
 TIME_SHIFT_2 NOTE_ON_95 DURATION/10_0
 TIME_SHIFT_128 NOTE_ON_58 DURATION/10_1
 TIME_SHIFT_5 NOTE_ON_77 DURATION/10_22
 TIME_SHIFT_11 NOTE_ON_65 DURATION/10_1
 TIME_SHIFT_5 NOTE_ON_60 DURATION/10_0
 TIME_SHIFT_131 NOTE_ON_86 DURATION/10_4
 TIME_SHIFT_2 NOTE_ON_74 DURATION/10_1
 TIME_SHIFT_1 NOTE_ON_76 DURATION/10_15
 TIME_SHIFT_1 NOTE_ON_64 DURATION/10_0
 TIME_SHIFT_3 NOTE_ON_81 DURATION/10_5
 TIME_SHIFT_1 NOTE_ON_58 DURATION/10_0
 TIME_SHIFT_116 NOTE_ON_58 DURATION/10_5
 TIME_SHIFT_0 NOTE_ON_83 DURATION/10_33
 TIME_SHIFT_147 NOTE_ON_57 DURATION/10_1
 TIME_SHIFT_0 NOTE_ON_77 DURATION/10_28
 TIME_SHIFT_153 NOTE_ON_76 DURATION/10_34
 TIME_SHIFT_1 NOTE_ON_81 DURATION/10_2
 TIME_SHIFT_0 NOTE_ON_86 DURATION/10_8
 TIME_SHIFT_3 NOTE_ON_64 DURATION/10_6
 TIME_SHIFT_3 NOTE_ON_58 DURATION/10_2
 TIME_SHIFT_108 NOTE_ON_83 DURATION/10_190
 TIME_SHIFT_3 NOTE_ON_58 DURATION/10_0
 TIME_SHIFT_159 NOTE_ON_65 DURATION/10_195
 TIME_SHIFT_0 NOTE_ON_77 DURATION/10_280
 TIME_SHIFT_1 NOTE_ON_67 DURATION/10_253
 TIME_SHIFT_1 NOTE_ON_57 DURATION/10_0
 TIME_SHIFT_2 NOTE_ON_60 DURATION/10_2
 TIME_SHIFT_2730 NOTE_ON_84 DURATION/10_29
 TIME_SHIFT_2 NOTE_ON_96 DURATION/10_0
 TIME_SHIFT_2 NOTE_ON_58 DURATION/10_0
 TIME_SHIFT_3 NOTE_ON_60 DURATION/10_6
 TIME_SHIFT_99 NOTE_ON_93 DURATION/10_1
 TIME_SHIFT_1 NOTE_ON_81 DURATION/10_25
 TIME_SHIFT_124 NOTE_ON_76 DURATION/10_7
 TIME_SHIFT_7 NOTE_ON_58 DURATION/10_1
 TIME_SHIFT_22 NOTE_ON_64 DURATION/10_1
 TIME_SHIFT_123 NOTE_ON_84 DURATION/10_38
 TIME_SHIFT_4 NOTE_ON_96 DURATION/10_0
 TIME_SHIFT_0 NOTE_ON_58 DURATION/10_6
 TIME_SHIFT_111 NOTE_ON_93 DURATION/10_1
 TIME_SHIFT_1 NOTE_ON_81 DURATION/10_24
 TIME_SHIFT_128 NOTE_ON_76 DURATION/10_3
 TIME_SHIFT_4 NOTE_ON_57 DURATION/10_0
 TIME_SHIFT_2 NOTE_ON_60 DURATION/10_2
 TIME_SHIFT_1 NOTE_ON_64 DURATION/10_6
 TIME_SHIFT_143 NOTE_ON_57 DURATION/10_0
 TIME_SHIFT_0 NOTE_ON_84 DURATION/10_38
 TIME_SHIFT_1 NOTE_ON_60 DURATION/10_0
 TIME_SHIFT_0 NOTE_ON_66 DURATION/10_0
 TIME_SHIFT_1 NOTE_ON_58 DURATION/10_3
 TIME_SHIFT_2 NOTE_ON_96 DURATION/10_0
 TIME_SHIFT_117 NOTE_ON_93 DURATION/10_1
 TIME_SHIFT_1 NOTE_ON_81 DURATION/10_20
 TIME_SHIFT_127 NOTE_ON_76 DURATION/10_11
 TIME_SHIFT_3 NOTE_ON_57 DURATION/10_1
 TIME_SHIFT_0 NOTE_ON_60 DURATION/10_16
 TIME_SHIFT_144 NOTE_ON_65 DURATION/10_0
 TIME_SHIFT_0 NOTE_ON_84 DURATION/10_42
 TIME_SHIFT_1 NOTE_ON_58 DURATION/10_3
 TIME_SHIFT_1 NOTE_ON_96 DURATION/10_1
 TIME_SHIFT_100 NOTE_ON_93 DURATION/10_1
 TIME_SHIFT_1 NOTE_ON_81 DURATION/10_27
 TIME_SHIFT_128 NOTE_ON_76 DURATION/10_13
 TIME_SHIFT_7 NOTE_ON_57 DURATION/10_0
 TIME_SHIFT_1 NOTE_ON_58 DURATION/10_0
 TIME_SHIFT_132 NOTE_ON_86 DURATION/10_21
 TIME_SHIFT_2 NOTE_ON_76 DURATION/10_40
 TIME_SHIFT_6 NOTE_ON_64 DURATION/10_4
 TIME_SHIFT_4 NOTE_ON_81 DURATION/10_18
 TIME_SHIFT_1 NOTE_ON_58 DURATION/10_2
 TIME_SHIFT_114 NOTE_ON_83 DURATION/10_31
 TIME_SHIFT_1 NOTE_ON_58 DURATION/10_0
 TIME_SHIFT_0 NOTE_ON_95 DURATION/10_0
 TIME_SHIFT_120 NOTE_ON_58 DURATION/10_0
 TIME_SHIFT_1 NOTE_ON_77 DURATION/10_27
 TIME_SHIFT_5 NOTE_ON_57 DURATION/10_0
 TIME_SHIFT_5 NOTE_ON_65 DURATION/10_0
 TIME_SHIFT_129 NOTE_ON_86 DURATION/10_16
 TIME_SHIFT_2 NOTE_ON_81 DURATION/10_15
 TIME_SHIFT_3 NOTE_ON_58 DURATION/10_3
 TIME_SHIFT_4 NOTE_ON_57 DURATION/10_2
 TIME_SHIFT_0 NOTE_ON_65 DURATION/10_12
 TIME_SHIFT_109 NOTE_ON_58 DURATION/10_1
 TIME_SHIFT_0 NOTE_ON_83 DURATION/10_30
 TIME_SHIFT_2 NOTE_ON_95 DURATION/10_0
 TIME_SHIFT_120 NOTE_ON_96 DURATION/10_0
 TIME_SHIFT_10 NOTE_ON_77 DURATION/10_28
 TIME_SHIFT_143 NOTE_ON_64 DURATION/10_0
 TIME_SHIFT_0 NOTE_ON_86 DURATION/10_28
 TIME_SHIFT_6 NOTE_ON_58 DURATION/10_2
 TIME_SHIFT_113 NOTE_ON_83 DURATION/10_30
 TIME_SHIFT_1 NOTE_ON_95 DURATION/10_0
 TIME_SHIFT_127 NOTE_ON_77 DURATION/10_21
 TIME_SHIFT_21 NOTE_ON_76 DURATION/10_0
 TIME_SHIFT_119 NOTE_ON_64 DURATION/10_4
 TIME_SHIFT_0 NOTE_ON_76 DURATION/10_6
 TIME_SHIFT_1 NOTE_ON_86 DURATION/10_15
 TIME_SHIFT_2 NOTE_ON_74 DURATION/10_0
 TIME_SHIFT_3 NOTE_ON_58 DURATION/10_4
 TIME_SHIFT_3 NOTE_ON_66 DURATION/10_3
 TIME_SHIFT_115 NOTE_ON_83 DURATION/10_32
 TIME_SHIFT_1 NOTE_ON_95 DURATION/10_0
 TIME_SHIFT_119 NOTE_ON_58 DURATION/10_1
 TIME_SHIFT_6 NOTE_ON_77 DURATION/10_32
 TIME_SHIFT_151 NOTE_ON_76 DURATION/10_18
 TIME_SHIFT_3 NOTE_ON_86 DURATION/10_8
 TIME_SHIFT_1 NOTE_ON_64 DURATION/10_5
 TIME_SHIFT_0 NOTE_ON_81 DURATION/10_15
 TIME_SHIFT_7 NOTE_ON_58 DURATION/10_4
 TIME_SHIFT_109 NOTE_ON_83 DURATION/10_24
 TIME_SHIFT_124 NOTE_ON_58 DURATION/10_2
 TIME_SHIFT_6 NOTE_ON_60 DURATION/10_5
 TIME_SHIFT_0 NOTE_ON_77 DURATION/10_28
 TIME_SHIFT_139 NOTE_ON_76 DURATION/10_39
 TIME_SHIFT_3 NOTE_ON_86 DURATION/10_29
 TIME_SHIFT_1 NOTE_ON_64 DURATION/10_7
 TIME_SHIFT_2 NOTE_ON_81 DURATION/10_17
 TIME_SHIFT_2 NOTE_ON_58 DURATION/10_2
 TIME_SHIFT_113 NOTE_ON_83 DURATION/10_33
 TIME_SHIFT_133 NOTE_ON_77 DURATION/10_25
 TIME_SHIFT_2 NOTE_ON_59 DURATION/10_0
 TIME_SHIFT_3 NOTE_ON_57 DURATION/10_18
 TIME_SHIFT_146 NOTE_ON_76 DURATION/10_42
 TIME_SHIFT_1 NOTE_ON_86 DURATION/10_4
 TIME_SHIFT_6 NOTE_ON_74 DURATION/10_0
 TIME_SHIFT_1 NOTE_ON_61 DURATION/10_5
 TIME_SHIFT_1 NOTE_ON_58 DURATION/10_4
 TIME_SHIFT_104 NOTE_ON_83 DURATION/10_46
 TIME_SHIFT_140 NOTE_ON_77 DURATION/10_22
 TIME_SHIFT_176 NOTE_ON_59 DURATION/10_3
 TIME_SHIFT_0 NOTE_ON_62 DURATION/10_32
 TIME_SHIFT_0 NOTE_ON_88 DURATION/10_98
 TIME_SHIFT_1 NOTE_ON_76 DURATION/10_270
 TIME_SHIFT_686 NOTE_ON_58 DURATION/10_4
 TIME_SHIFT_2 NOTE_ON_84 DURATION/10_112
 TIME_SHIFT_3 NOTE_ON_96 DURATION/10_0
 TIME_SHIFT_715 NOTE_ON_83 DURATION/10_323
 TIME_SHIFT_1 NOTE_ON_95 DURATION/10_1
 TIME_SHIFT_1675 NOTE_ON_81 DURATION/10_208
 TIME_SHIFT_3 NOTE_ON_93 DURATION/10_0
 TIME_SHIFT_27 NOTE_ON_45 DURATION/10_205
 TIME_SHIFT_1 NOTE_ON_57 DURATION/10_205
 TIME_SHIFT_160 NOTE_ON_52 DURATION/10_189
